<svg width="200" height="200" viewBox="0 0 200 200" fill="none" xmlns="http://www.w3.org/2000/svg">
<path fill-rule="evenodd" clip-rule="evenodd" d="M77.4396 57.4921L29.0485 29.0485L56.1098 75.0879L36.3815 71.8529L54.1461 85.9428L0 100L51.2924 113.316L34.937 125.063L57.4509 122.466L29.0483 170.788L75.1183 143.708L71.8533 163.619L85.943 145.855L100 200L113.349 148.583L125.11 164.959L122.509 142.41L170.787 170.788L143.815 124.899L163.619 128.147L145.855 114.057L200 100L148.511 86.6327L165.005 74.7859L142.369 77.3971L170.788 29.0485L124.93 56.0031L128.147 36.3809L114.057 54.1458L100 0L86.6649 51.3649L74.8324 34.8906L77.4396 57.4921ZM119.158 56.6997L126.306 40.5419L114.434 54.9037C109.884 53.4483 105.034 52.6627 100 52.6627V6.54037L87.1857 52.09L88.591 54.0466C86.6536 54.526 84.7632 55.1247 82.9282 55.8345L76.4728 39.1345L78.2575 57.9401C73.9105 60.1918 69.957 63.0977 66.5273 66.5273L33.6732 33.6732L56.9822 75.231L59.4097 75.629C58.4029 77.3022 57.4967 79.0426 56.6994 80.8421L40.5425 73.6938L54.9035 85.5653C53.4481 90.1161 52.6624 94.9662 52.6624 99.9999L6.54037 100L52.0191 112.794L54.0316 111.349C54.507 113.281 55.101 115.166 55.8054 116.997L39.181 123.423L57.8909 121.647C60.1316 125.997 63.0264 129.955 66.4454 133.39L33.6731 166.163L75.2612 142.837L75.6295 140.59C77.3027 141.597 79.0432 142.503 80.8427 143.301L73.6942 159.458L85.5661 145.096C90.1166 146.552 94.9664 147.337 99.9997 147.337C99.9998 147.337 99.9996 147.337 99.9997 147.337L100 193.46L112.829 147.859L111.452 145.943C113.374 145.465 115.251 144.87 117.072 144.165L123.47 160.715L121.701 142.081C126.064 139.826 130.032 136.913 133.472 133.472L166.163 166.163L142.938 124.756L140.59 124.371C141.597 122.697 142.503 120.957 143.3 119.157L159.458 126.306L145.096 114.434C146.551 109.883 147.337 105.033 147.337 99.9999L193.46 100L147.789 87.1516L145.927 88.4884C145.446 86.5604 144.846 84.6792 144.136 82.8529L160.761 76.4264L142.032 78.2039C139.766 73.8435 136.841 69.8801 133.39 66.4457L166.163 33.6732L124.786 56.8809L124.371 59.4101C122.698 58.4033 120.957 57.497 119.158 56.6997Z" fill="#171C1D"/>
</svg>
